<svg xmlns="http://www.w3.org/2000/svg" width="256" height="256" viewBox="0 0 100 100"><rect width="100" height="100" rx="50" fill="#7225ff"></rect><path fill="#fff" d="M32.63 71.72L32.63 71.72Q28.07 71.72 24.95 70.01Q21.83 68.30 19.94 65.42Q18.05 62.54 17.18 58.97Q16.31 55.40 16.31 51.68L16.31 51.68Q16.31 44.72 18.23 39.47Q20.15 34.22 23.78 31.25Q27.41 28.28 32.57 28.28L32.57 28.28Q36.53 28.28 39.35 29.84Q42.17 31.40 43.82 34.01Q45.47 36.62 45.89 39.80L45.89 39.80L41.21 39.80Q40.55 36.38 38.27 34.52Q35.99 32.66 32.51 32.66L32.51 32.66Q27.77 32.66 24.56 37.13Q21.35 41.60 21.11 51.08L21.11 51.08Q22.55 48.26 25.70 46.19Q28.85 44.12 33.29 44.12L33.29 44.12Q36.89 44.12 40.04 45.80Q43.19 47.48 45.17 50.51Q47.15 53.54 47.15 57.62L47.15 57.62Q47.15 61.16 45.41 64.40Q43.67 67.64 40.40 69.68Q37.13 71.72 32.63 71.72ZM32.27 67.28L32.27 67.28Q35.09 67.28 37.31 66.08Q39.53 64.88 40.79 62.75Q42.05 60.62 42.05 57.86L42.05 57.86Q42.05 53.60 39.26 51.05Q36.47 48.50 32.27 48.50L32.27 48.50Q29.45 48.50 27.23 49.79Q25.01 51.08 23.72 53.24Q22.43 55.40 22.43 57.92L22.43 57.92Q22.43 60.62 23.72 62.75Q25.01 64.88 27.23 66.08Q29.45 67.28 32.27 67.28ZM69.17 71.72L69.17 71.72Q65.03 71.72 61.73 70.19Q58.43 68.66 56.54 65.93Q54.65 63.20 54.65 59.60L54.65 59.60Q54.65 55.76 56.90 52.70Q59.15 49.64 62.87 48.62L62.87 48.62Q59.45 47.48 57.59 44.96Q55.73 42.44 55.73 39.44L55.73 39.44Q55.73 36.38 57.35 33.83Q58.97 31.28 61.97 29.78Q64.97 28.28 69.17 28.28L69.17 28.28Q73.37 28.28 76.37 29.78Q79.37 31.28 80.99 33.83Q82.61 36.38 82.61 39.44L82.61 39.44Q82.61 42.38 80.75 44.93Q78.89 47.48 75.47 48.62L75.47 48.62Q79.19 49.64 81.44 52.70Q83.69 55.76 83.69 59.60L83.69 59.60Q83.69 63.20 81.80 65.93Q79.91 68.66 76.61 70.19Q73.31 71.72 69.17 71.72ZM69.17 46.82L69.17 46.82Q73.01 46.82 75.26 44.87Q77.51 42.92 77.51 39.74L77.51 39.74Q77.51 36.20 75.29 34.40Q73.07 32.60 69.17 32.60L69.17 32.60Q65.27 32.60 63.08 34.40Q60.89 36.20 60.89 39.74L60.89 39.74Q60.89 42.92 63.11 44.87Q65.33 46.82 69.17 46.82ZM69.17 67.28L69.17 67.28Q73.91 67.28 76.28 65.09Q78.65 62.90 78.65 59.30L78.65 59.30Q78.65 55.22 76.07 53.12Q73.49 51.02 69.17 51.02L69.17 51.02Q64.85 51.02 62.27 53.12Q59.69 55.22 59.69 59.30L59.69 59.30Q59.69 62.90 62.06 65.09Q64.43 67.28 69.17 67.28Z"></path></svg>