<svg xmlns="http://www.w3.org/2000/svg" width="256" height="256" viewBox="0 0 100 100"><rect width="100" height="100" rx="20" fill="#7225ff"></rect><path d="M47.43 57.51L47.43 57.51Q47.43 53.15 45.32 49.67Q43.21 46.20 39.57 44.15Q35.93 42.10 31.31 42.10L31.31 42.10Q29.17 42.10 27.28 42.72Q25.40 43.34 23.97 44.47Q22.54 45.61 21.63 47.17L21.63 47.17Q21.76 43.01 22.93 40.05Q24.10 37.10 26.24 35.54Q28.39 33.98 31.31 33.98L31.31 33.98Q34.17 33.98 36.64 35.37Q39.11 36.77 40.67 39.18L40.67 39.18L45.68 33.72Q43.14 30.21 39.47 28.32Q35.80 26.44 31.44 26.44L31.44 26.44Q25.98 26.44 21.95 29.39Q17.92 32.35 15.75 38.17Q13.57 43.99 13.57 52.37L13.57 52.37Q13.57 59.00 15.65 63.75Q17.73 68.49 21.53 71.03Q25.33 73.56 30.53 73.56L30.53 73.56Q35.34 73.56 39.15 71.42Q42.95 69.27 45.19 65.63Q47.43 61.99 47.43 57.51ZM30.53 66.22L30.53 66.22Q28.32 66.22 26.37 65.02Q24.42 63.81 23.25 61.83Q22.08 59.85 22.08 57.51L22.08 57.51Q22.08 55.17 23.22 53.25Q24.36 51.33 26.31 50.19Q28.26 49.06 30.60 49.06L30.60 49.06Q32.94 49.06 34.86 50.19Q36.77 51.33 37.94 53.25Q39.11 55.17 39.11 57.51L39.11 57.51Q39.11 59.85 37.94 61.83Q36.77 63.81 34.82 65.02Q32.87 66.22 30.53 66.22ZM86.43 59.26L86.43 59.26Q86.43 63.55 84.13 66.74Q81.82 69.92 77.98 71.71Q74.15 73.50 69.60 73.50L69.60 73.50Q64.98 73.50 61.18 71.61Q57.38 69.73 55.13 66.44Q52.89 63.16 52.89 58.94L52.89 58.94Q52.89 56.34 54.00 54.22Q55.10 52.11 56.76 50.58Q58.42 49.06 60.11 48.21L60.11 48.21Q58.55 47.43 57.21 46.13Q55.88 44.83 55.10 43.14Q54.32 41.45 54.32 39.57L54.32 39.57Q54.32 36.51 55.69 34.11Q57.05 31.70 59.33 30.04Q61.60 28.39 64.30 27.57Q67.00 26.76 69.66 26.76L69.66 26.76Q72.26 26.76 74.99 27.57Q77.72 28.39 80.00 30.01Q82.27 31.64 83.67 34.01Q85.07 36.38 85.07 39.50L85.07 39.50Q85.07 41.32 84.25 43.04Q83.44 44.77 82.11 46.10Q80.78 47.43 79.09 48.21L79.09 48.21Q80.97 49.19 82.66 50.75Q84.35 52.31 85.39 54.45Q86.43 56.60 86.43 59.26ZM77.59 58.74L77.59 58.74Q77.59 57.05 76.94 55.78Q76.29 54.52 75.12 53.64Q73.95 52.76 72.52 52.31Q71.09 51.85 69.60 51.85L69.60 51.85Q67.52 51.85 65.73 52.70Q63.94 53.54 62.84 55.10Q61.73 56.66 61.73 58.74L61.73 58.74Q61.73 60.30 62.41 61.57Q63.10 62.84 64.23 63.75Q65.37 64.66 66.77 65.14Q68.17 65.63 69.66 65.63L69.66 65.63Q71.74 65.63 73.56 64.72Q75.38 63.81 76.49 62.25Q77.59 60.69 77.59 58.74ZM63.16 39.83L63.16 39.83Q63.16 41.58 64.14 42.82Q65.11 44.05 66.64 44.67Q68.17 45.29 69.66 45.29L69.66 45.29Q71.22 45.29 72.69 44.64Q74.15 43.99 75.16 42.78Q76.16 41.58 76.16 39.76L76.16 39.76Q76.16 38.14 75.25 36.97Q74.34 35.80 72.88 35.15Q71.42 34.50 69.60 34.50L69.60 34.50Q67.91 34.50 66.41 35.15Q64.92 35.80 64.04 37.00Q63.16 38.20 63.16 39.83Z" fill="#fff"></path></svg>